<?xml version="1.0" encoding="UTF-8" standalone="no"?>
<svg
   id="Layer_1"
   height="512"
   viewBox="0 0 24 24"
   width="512"
   data-name="Layer 1"
   version="1.1"
   sodipodi:docname="add.svg"
   xml:space="preserve"
   inkscape:version="1.3 (0e150ed6c4, 2023-07-21)"
   xmlns:inkscape="http://www.inkscape.org/namespaces/inkscape"
   xmlns:sodipodi="http://sodipodi.sourceforge.net/DTD/sodipodi-0.dtd"
   xmlns="http://www.w3.org/2000/svg"
   xmlns:svg="http://www.w3.org/2000/svg"><defs
     id="defs1" /><sodipodi:namedview
     id="namedview1"
     pagecolor="#ffffff"
     bordercolor="#000000"
     borderopacity="0.25"
     inkscape:showpageshadow="2"
     inkscape:pageopacity="0.0"
     inkscape:pagecheckerboard="0"
     inkscape:deskcolor="#d1d1d1"
     inkscape:zoom="1.1089976"
     inkscape:cx="240.3071"
     inkscape:cy="334.9872"
     inkscape:window-width="1920"
     inkscape:window-height="1007"
     inkscape:window-x="0"
     inkscape:window-y="0"
     inkscape:window-maximized="1"
     inkscape:current-layer="Layer_1" /><path
     id="rect1"
     style="fill:#ffffff;stroke-width:15.8418"
     d="M 11.519672,1.2634623 A 2.1581483,2.1581483 0 0 0 10.654451,1.6801678 2.1581483,2.1581483 0 0 0 10.055573,2.4309884 2.1581483,2.1581483 0 0 0 9.8417848,3.3673408 v 6.474444 h -6.474444 a 2.1581483,2.1581483 0 0 0 -0.9363524,0.2137882 2.1581483,2.1581483 0 0 0 -0.7508206,0.598878 2.1581483,2.1581483 0 0 0 -0.4167055,0.865221 2.1581483,2.1581483 0 0 0 0,0.960656 2.1581483,2.1581483 0 0 0 0.4167055,0.865221 2.1581483,2.1581483 0 0 0 0.7508206,0.598878 2.1581483,2.1581483 0 0 0 0.9363524,0.213788 h 6.474444 v 6.474445 a 2.1581483,2.1581483 0 0 0 0.2137882,0.936352 2.1581483,2.1581483 0 0 0 0.598878,0.75082 2.1581483,2.1581483 0 0 0 0.865221,0.416706 2.1581483,2.1581483 0 0 0 0.960656,0 2.1581483,2.1581483 0 0 0 0.865221,-0.416706 2.1581483,2.1581483 0 0 0 0.598878,-0.75082 2.1581483,2.1581483 0 0 0 0.213788,-0.936352 v -6.474445 h 6.474445 a 2.1581483,2.1581483 0 0 0 0.936352,-0.213788 2.1581483,2.1581483 0 0 0 0.75082,-0.598878 2.1581483,2.1581483 0 0 0 0.416706,-0.865221 2.1581483,2.1581483 0 0 0 0,-0.960656 2.1581483,2.1581483 0 0 0 -0.416706,-0.865221 2.1581483,2.1581483 0 0 0 -0.75082,-0.598878 A 2.1581483,2.1581483 0 0 0 20.63266,9.8417848 H 14.158215 V 3.3673408 A 2.1581483,2.1581483 0 0 0 13.944427,2.4309884 2.1581483,2.1581483 0 0 0 13.345549,1.6801678 2.1581483,2.1581483 0 0 0 12.480328,1.2634623 a 2.1581483,2.1581483 0 0 0 -0.960656,0 z" /></svg>
