<?xml version="1.0" encoding="UTF-8" standalone="no"?>
<svg
   id="Layer_1"
   height="512"
   viewBox="0 0 24 24"
   width="512"
   data-name="Layer 1"
   version="1.1"
   sodipodi:docname="add copy.svg"
   inkscape:version="1.3 (0e150ed6c4, 2023-07-21)"
   xmlns:inkscape="http://www.inkscape.org/namespaces/inkscape"
   xmlns:sodipodi="http://sodipodi.sourceforge.net/DTD/sodipodi-0.dtd"
   xmlns:xlink="http://www.w3.org/1999/xlink"
   xmlns="http://www.w3.org/2000/svg"
   xmlns:svg="http://www.w3.org/2000/svg">
  <defs
     id="defs1">
    <linearGradient
       id="swatch1"
       inkscape:swatch="solid">
      <stop
         style="stop-color:#49a12d;stop-opacity:1;"
         offset="0"
         id="stop1" />
    </linearGradient>
    <linearGradient
       inkscape:collect="always"
       xlink:href="#swatch1"
       id="linearGradient1"
       x1="2"
       y1="12"
       x2="22"
       y2="12"
       gradientUnits="userSpaceOnUse" />
  </defs>
  <sodipodi:namedview
     id="namedview1"
     pagecolor="#ffffff"
     bordercolor="#000000"
     borderopacity="0.25"
     inkscape:showpageshadow="2"
     inkscape:pageopacity="0.0"
     inkscape:pagecheckerboard="0"
     inkscape:deskcolor="#d1d1d1"
     inkscape:zoom="1.5683594"
     inkscape:cx="256"
     inkscape:cy="256"
     inkscape:window-width="1920"
     inkscape:window-height="1007"
     inkscape:window-x="0"
     inkscape:window-y="0"
     inkscape:window-maximized="1"
     inkscape:current-layer="Layer_1" />
  <path
     d="m14 7v-6.54a6.977 6.977 0 0 1 2.465 1.59l3.484 3.486a6.954 6.954 0 0 1 1.591 2.464h-6.54a1 1 0 0 1 -1-1zm8 3.485v8.515a5.006 5.006 0 0 1 -5 5h-10a5.006 5.006 0 0 1 -5-5v-14a5.006 5.006 0 0 1 5-5h4.515c.163 0 .324.013.485.024v6.976a3 3 0 0 0 3 3h6.976c.011.161.024.322.024.485zm-6 6.515a1 1 0 0 0 -1-1h-2v-2a1 1 0 0 0 -2 0v2h-2a1 1 0 0 0 0 2h2v2a1 1 0 0 0 2 0v-2h2a1 1 0 0 0 1-1z"
     id="path1"
     style="fill:url(#linearGradient1)" />
</svg>
