<?xml version="1.0" encoding="UTF-8" standalone="no"?>
<!-- Generator: Adobe Illustrator 25.0.0, SVG Export Plug-In . SVG Version: 6.00 Build 0)  -->

<svg
   version="1.1"
   id="Capa_1"
   x="0px"
   y="0px"
   viewBox="0 0 512 512"
   style="enable-background:new 0 0 512 512;"
   xml:space="preserve"
   width="512"
   height="512"
   sodipodi:docname="apps-add.svg"
   inkscape:version="1.3 (0e150ed6c4, 2023-07-21)"
   xmlns:inkscape="http://www.inkscape.org/namespaces/inkscape"
   xmlns:sodipodi="http://sodipodi.sourceforge.net/DTD/sodipodi-0.dtd"
   xmlns="http://www.w3.org/2000/svg"
   xmlns:svg="http://www.w3.org/2000/svg"><defs
   id="defs4"><linearGradient
     id="swatch1"
     inkscape:swatch="solid"><stop
       style="stop-color:#49a12d;stop-opacity:1;"
       offset="0"
       id="stop1" /></linearGradient></defs><sodipodi:namedview
   id="namedview4"
   pagecolor="#ffffff"
   bordercolor="#000000"
   borderopacity="0.25"
   inkscape:showpageshadow="2"
   inkscape:pageopacity="0.0"
   inkscape:pagecheckerboard="0"
   inkscape:deskcolor="#d1d1d1"
   inkscape:zoom="1.5683594"
   inkscape:cx="256"
   inkscape:cy="256"
   inkscape:window-width="1920"
   inkscape:window-height="1007"
   inkscape:window-x="0"
   inkscape:window-y="0"
   inkscape:window-maximized="1"
   inkscape:current-layer="Capa_1" />&#10;<g
   id="g4"
   style="fill:#49a12d;fill-opacity:1">&#10;	<path
   d="M85.333,0h64c47.128,0,85.333,38.205,85.333,85.333v64c0,47.128-38.205,85.333-85.333,85.333h-64   C38.205,234.667,0,196.462,0,149.333v-64C0,38.205,38.205,0,85.333,0z"
   id="path1"
   style="fill:#49a12d;fill-opacity:1" />&#10;	<path
   d="M85.333,277.333h64c47.128,0,85.333,38.205,85.333,85.333v64c0,47.128-38.205,85.333-85.333,85.333h-64   C38.205,512,0,473.795,0,426.667v-64C0,315.538,38.205,277.333,85.333,277.333z"
   id="path2"
   style="fill:#49a12d;fill-opacity:1" />&#10;	<path
   d="M362.667,277.333h64c47.128,0,85.333,38.205,85.333,85.333v64C512,473.795,473.795,512,426.667,512h-64   c-47.128,0-85.333-38.205-85.333-85.333v-64C277.333,315.538,315.538,277.333,362.667,277.333z"
   id="path3"
   style="fill:#49a12d;fill-opacity:1" />&#10;	<path
   d="M298.667,149.333h64v64c0,11.782,9.551,21.333,21.333,21.333c11.782,0,21.333-9.551,21.333-21.333v-64h64   c11.782,0,21.333-9.551,21.333-21.333s-9.551-21.333-21.333-21.333h-64v-64c0-11.782-9.551-21.333-21.333-21.333   c-11.782,0-21.333,9.551-21.333,21.333v64h-64c-11.782,0-21.333,9.551-21.333,21.333S286.885,149.333,298.667,149.333z"
   id="path4"
   style="fill:#49a12d;fill-opacity:1" />&#10;</g>&#10;&#10;&#10;&#10;&#10;&#10;&#10;&#10;&#10;&#10;&#10;&#10;&#10;&#10;&#10;&#10;</svg>
