<?xml version="1.0" encoding="UTF-8" standalone="no"?>
<svg
   id="Outline"
   viewBox="0 0 24 24"
   width="512"
   height="512"
   version="1.1"
   sodipodi:docname="bookmark.svg"
   inkscape:version="1.3 (0e150ed6c4, 2023-07-21)"
   xml:space="preserve"
   xmlns:inkscape="http://www.inkscape.org/namespaces/inkscape"
   xmlns:sodipodi="http://sodipodi.sourceforge.net/DTD/sodipodi-0.dtd"
   xmlns="http://www.w3.org/2000/svg"
   xmlns:svg="http://www.w3.org/2000/svg"><defs
     id="defs1" /><sodipodi:namedview
     id="namedview1"
     pagecolor="#ffffff"
     bordercolor="#000000"
     borderopacity="0.25"
     inkscape:showpageshadow="2"
     inkscape:pageopacity="0.0"
     inkscape:pagecheckerboard="0"
     inkscape:deskcolor="#d1d1d1"
     inkscape:zoom="0.7841797"
     inkscape:cx="231.45205"
     inkscape:cy="68.224158"
     inkscape:window-width="1920"
     inkscape:window-height="1007"
     inkscape:window-x="0"
     inkscape:window-y="0"
     inkscape:window-maximized="1"
     inkscape:current-layer="Outline" /><path
     d="M20.137,24a2.8,2.8,0,0,1-1.987-.835L12,17.051,5.85,23.169a2.8,2.8,0,0,1-3.095.609A2.8,2.8,0,0,1,1,21.154V5A5,5,0,0,1,6,0H18a5,5,0,0,1,5,5V21.154a2.8,2.8,0,0,1-1.751,2.624A2.867,2.867,0,0,1,20.137,24ZM6,2A3,3,0,0,0,3,5V21.154a.843.843,0,0,0,1.437.6h0L11.3,14.933a1,1,0,0,1,1.41,0l6.855,6.819a.843.843,0,0,0,1.437-.6V5a3,3,0,0,0-3-3Z"
     id="path1"
     style="fill:#49a12d;fill-opacity:1" /></svg>
