<?xml version="1.0" encoding="UTF-8" standalone="no"?>
<svg
   id="Outline"
   viewBox="0 0 24 24"
   width="512"
   height="512"
   version="1.1"
   sodipodi:docname="globe.svg"
   xml:space="preserve"
   inkscape:version="1.3 (0e150ed6c4, 2023-07-21)"
   xmlns:inkscape="http://www.inkscape.org/namespaces/inkscape"
   xmlns:sodipodi="http://sodipodi.sourceforge.net/DTD/sodipodi-0.dtd"
   xmlns="http://www.w3.org/2000/svg"
   xmlns:svg="http://www.w3.org/2000/svg"><defs
     id="defs1" /><sodipodi:namedview
     id="namedview1"
     pagecolor="#ffffff"
     bordercolor="#000000"
     borderopacity="0.25"
     inkscape:showpageshadow="2"
     inkscape:pageopacity="0.0"
     inkscape:pagecheckerboard="0"
     inkscape:deskcolor="#d1d1d1"
     inkscape:zoom="1.5683594"
     inkscape:cx="256"
     inkscape:cy="332.51308"
     inkscape:window-width="1920"
     inkscape:window-height="1007"
     inkscape:window-x="0"
     inkscape:window-y="0"
     inkscape:window-maximized="1"
     inkscape:current-layer="Outline" /><path
     d="M12,0A12,12,0,1,0,24,12,12.013,12.013,0,0,0,12,0Zm8.647,7H17.426a19.676,19.676,0,0,0-2.821-4.644A10.031,10.031,0,0,1,20.647,7ZM16.5,12a10.211,10.211,0,0,1-.476,3H7.976A10.211,10.211,0,0,1,7.5,12a10.211,10.211,0,0,1,.476-3h8.048A10.211,10.211,0,0,1,16.5,12ZM8.778,17h6.444A19.614,19.614,0,0,1,12,21.588,19.57,19.57,0,0,1,8.778,17Zm0-10A19.614,19.614,0,0,1,12,2.412,19.57,19.57,0,0,1,15.222,7ZM9.4,2.356A19.676,19.676,0,0,0,6.574,7H3.353A10.031,10.031,0,0,1,9.4,2.356ZM2.461,9H5.9a12.016,12.016,0,0,0-.4,3,12.016,12.016,0,0,0,.4,3H2.461a9.992,9.992,0,0,1,0-6Zm.892,8H6.574A19.676,19.676,0,0,0,9.4,21.644,10.031,10.031,0,0,1,3.353,17Zm11.252,4.644A19.676,19.676,0,0,0,17.426,17h3.221A10.031,10.031,0,0,1,14.605,21.644ZM21.539,15H18.1a12.016,12.016,0,0,0,.4-3,12.016,12.016,0,0,0-.4-3h3.437a9.992,9.992,0,0,1,0,6Z"
     id="path1"
     style="fill:#49a12d;fill-opacity:1" /></svg>
