<?xml version="1.0" encoding="UTF-8" standalone="no"?>
<svg
   id="Bold"
   viewBox="0 0 24 24"
   width="512"
   height="512"
   version="1.1"
   sodipodi:docname="heart.svg"
   xml:space="preserve"
   inkscape:version="1.3 (0e150ed6c4, 2023-07-21)"
   xmlns:inkscape="http://www.inkscape.org/namespaces/inkscape"
   xmlns:sodipodi="http://sodipodi.sourceforge.net/DTD/sodipodi-0.dtd"
   xmlns="http://www.w3.org/2000/svg"
   xmlns:svg="http://www.w3.org/2000/svg"><defs
     id="defs1" /><sodipodi:namedview
     id="namedview1"
     pagecolor="#ffffff"
     bordercolor="#000000"
     borderopacity="0.25"
     inkscape:showpageshadow="2"
     inkscape:pageopacity="0.0"
     inkscape:pagecheckerboard="0"
     inkscape:deskcolor="#d1d1d1"
     inkscape:zoom="1.5683594"
     inkscape:cx="256"
     inkscape:cy="256"
     inkscape:window-width="1920"
     inkscape:window-height="1007"
     inkscape:window-x="0"
     inkscape:window-y="0"
     inkscape:window-maximized="1"
     inkscape:current-layer="Bold" /><path
     d="M17.25,1.851A6.568,6.568,0,0,0,12,4.558,6.568,6.568,0,0,0,6.75,1.851,7.035,7.035,0,0,0,0,9.126c0,4.552,4.674,9.425,8.6,12.712a5.29,5.29,0,0,0,6.809,0c3.922-3.287,8.6-8.16,8.6-12.712A7.035,7.035,0,0,0,17.25,1.851ZM13.477,19.539a2.294,2.294,0,0,1-2.955,0C5.742,15.531,3,11.736,3,9.126A4.043,4.043,0,0,1,6.75,4.851,4.043,4.043,0,0,1,10.5,9.126a1.5,1.5,0,0,0,3,0,4.043,4.043,0,0,1,3.75-4.275A4.043,4.043,0,0,1,21,9.126C21,11.736,18.258,15.531,13.477,19.539Z"
     id="path1"
     style="fill:#666666;fill-opacity:1" /></svg>
