<?xml version="1.0" encoding="UTF-8" standalone="no"?>
<svg
   id="Outline"
   viewBox="0 0 24 24"
   width="512"
   height="512"
   version="1.1"
   sodipodi:docname="home-details.svg"
   xml:space="preserve"
   inkscape:version="1.3 (0e150ed6c4, 2023-07-21)"
   xmlns:inkscape="http://www.inkscape.org/namespaces/inkscape"
   xmlns:sodipodi="http://sodipodi.sourceforge.net/DTD/sodipodi-0.dtd"
   xmlns="http://www.w3.org/2000/svg"
   xmlns:svg="http://www.w3.org/2000/svg"><defs
     id="defs4" /><sodipodi:namedview
     id="namedview4"
     pagecolor="#ffffff"
     bordercolor="#000000"
     borderopacity="0.25"
     inkscape:showpageshadow="2"
     inkscape:pageopacity="0.0"
     inkscape:pagecheckerboard="0"
     inkscape:deskcolor="#d1d1d1"
     inkscape:zoom="0.78417969"
     inkscape:cx="454.61519"
     inkscape:cy="385.75342"
     inkscape:window-width="1920"
     inkscape:window-height="1007"
     inkscape:window-x="0"
     inkscape:window-y="0"
     inkscape:window-maximized="1"
     inkscape:current-layer="Outline" /><path
     d="M7,0H4A4,4,0,0,0,0,4V7a4,4,0,0,0,4,4H7a4,4,0,0,0,4-4V4A4,4,0,0,0,7,0ZM9,7A2,2,0,0,1,7,9H4A2,2,0,0,1,2,7V4A2,2,0,0,1,4,2H7A2,2,0,0,1,9,4Z"
     id="path1"
     style="fill:#49a12d;fill-opacity:1" /><path
     d="M20,0H17a4,4,0,0,0-4,4V7a4,4,0,0,0,4,4h3a4,4,0,0,0,4-4V4A4,4,0,0,0,20,0Zm2,7a2,2,0,0,1-2,2H17a2,2,0,0,1-2-2V4a2,2,0,0,1,2-2h3a2,2,0,0,1,2,2Z"
     id="path2"
     style="fill:#49a12d;fill-opacity:1" /><path
     d="M7,13H4a4,4,0,0,0-4,4v3a4,4,0,0,0,4,4H7a4,4,0,0,0,4-4V17A4,4,0,0,0,7,13Zm2,7a2,2,0,0,1-2,2H4a2,2,0,0,1-2-2V17a2,2,0,0,1,2-2H7a2,2,0,0,1,2,2Z"
     id="path3"
     style="fill:#49a12d;fill-opacity:1" /><path
     d="M20,13H17a4,4,0,0,0-4,4v3a4,4,0,0,0,4,4h3a4,4,0,0,0,4-4V17A4,4,0,0,0,20,13Zm2,7a2,2,0,0,1-2,2H17a2,2,0,0,1-2-2V17a2,2,0,0,1,2-2h3a2,2,0,0,1,2,2Z"
     id="path4"
     style="fill:#49a12d;fill-opacity:1" /></svg>
