<?xml version="1.0" encoding="UTF-8" standalone="no"?>
<!-- Created with Inkscape (http://www.inkscape.org/) -->

<svg
   width="520mm"
   height="520mm"
   viewBox="0 0 520 520"
   version="1.1"
   id="svg5"
   xml:space="preserve"
   inkscape:version="1.3 (0e150ed6c4, 2023-07-21)"
   sodipodi:docname="logout-back.svg"
   xmlns:inkscape="http://www.inkscape.org/namespaces/inkscape"
   xmlns:sodipodi="http://sodipodi.sourceforge.net/DTD/sodipodi-0.dtd"
   xmlns="http://www.w3.org/2000/svg"
   xmlns:svg="http://www.w3.org/2000/svg"><sodipodi:namedview
     id="namedview7"
     pagecolor="#ffffff"
     bordercolor="#000000"
     borderopacity="0.25"
     inkscape:showpageshadow="2"
     inkscape:pageopacity="0.0"
     inkscape:pagecheckerboard="0"
     inkscape:deskcolor="#d1d1d1"
     inkscape:document-units="mm"
     showgrid="false"
     inkscape:zoom="0.27433372"
     inkscape:cx="-122.11404"
     inkscape:cy="1033.4129"
     inkscape:window-width="1920"
     inkscape:window-height="1007"
     inkscape:window-x="0"
     inkscape:window-y="0"
     inkscape:window-maximized="1"
     inkscape:current-layer="layer1" /><defs
     id="defs2" /><g
     inkscape:label="Layer 1"
     inkscape:groupmode="layer"
     id="layer1"><path
       id="rect234"
       style="fill:#550000;stroke-width:1.99006;opacity:0.25827815"
       d="m 151.36094,64.18106 c -48.29759,0 -87.181239,38.88163 -87.181239,87.17922 v 201.35383 c 6.283232,-23.54147 14.282921,-45.94886 23.472742,-66.5928 20.960127,-47.08496 47.341787,-85.2371 78.481617,-107.13151 14.59688,-10.2601 31.08723,-17.28391 48.72207,-16.94803 l -0.003,-0.009 c 1.17528,0.0676 2.35674,0.13416 3.54284,0.20171 61.53493,5.80799 67.54154,81.2834 75.87585,133.53123 7.02844,-13.36602 10.90291,-27.77488 25.04201,-37.20108 9.83389,-6.55194 18.88531,-3.85169 22.85079,-2.35983 3.96539,1.4851 5.87883,2.97175 7.7443,4.30918 3.73201,2.6684 6.56265,5.24152 9.68747,8.29917 6.24887,6.11588 13.14518,13.84318 20.24494,21.77347 7.09957,7.93096 14.29275,16.01636 20.21231,22.43404 5.91956,6.41825 12.64657,12.00888 10.20992,10.38267 13.26119,8.84237 28.33892,11.37912 45.55719,9.10413 V 151.36337 c 0,-48.2976 -38.88365,-87.179317 -87.18124,-87.179317 z m 61.79187,144.98302 c -4.60627,0.20848 -11.47448,2.32508 -19.9665,8.29917 -17.34944,12.19816 -38.85217,39.37443 -56.50091,74.83725 14.96808,-3.58858 29.14569,-3.85797 41.70742,-3.99213 16.3613,-0.14766 30.14417,-0.24225 41.56721,-3.33349 9.61652,-2.63084 18.11742,-6.8215 27.53802,-17.0151 -5.01607,-23.90706 -11.54697,-39.88134 -17.81398,-48.40897 -6.34905,-8.64123 -10.20846,-10.01225 -14.72429,-10.34812 -0.56461,-0.0386 -1.14844,-0.0676 -1.80697,-0.0386 z m 122.44531,102.76751 c -1.26736,1.98901 -1.5515,1.73334 -2.77861,4.06518 -5.53649,10.52891 -10.9004,23.59899 -15.59227,35.45509 -4.69167,11.85687 -8.08317,21.57253 -12.36243,29.89989 -1.06988,2.07984 -1.94789,3.98873 -4.82747,7.36219 -1.43992,1.68672 -3.35665,4.13274 -8.29926,6.56534 -1.23571,0.60517 -2.60701,1.09489 -4.30513,1.56511 0,0 -3.78643,0.53664 -8.18943,0.26833 -3.54622,-0.18821 -7.492,-0.84549 -10.18145,-2.59977 -0.0482,-0.0193 -3.25347,-2.11729 -4.47991,-3.26641 -1.22634,-1.14914 -2.10474,-2.35164 -2.88217,-3.40665 -1.55431,-2.1033 -2.40897,-3.76367 -3.02049,-5.24211 -1.22905,-2.96355 -1.5659,-4.91126 -1.84154,-6.59798 -0.55111,-3.37209 -0.65824,-5.81291 -0.65824,-8.64876 0,-17.31885 -0.63026,-33.01051 -1.70131,-47.29719 -7.48061,4.22086 -15.08814,7.28565 -22.57234,9.34194 -19.56845,5.36255 -37.65875,4.69138 -53.1653,4.82545 -15.50492,0.14091 -28.27541,0.88795 -39.52036,5.2422 -9.46249,3.66039 -18.67858,9.67974 -28.82257,22.71045 -6.56429,24.00069 -11.201522,49.34923 -13.114479,74.91649 14.843969,11.72571 33.607849,18.72856 54.077969,18.72856 h 217.27742 c 44.61269,0 81.16623,-33.18357 86.48816,-76.31076 -24.38936,2.00475 -48.7629,-2.23774 -70.98131,-17.04966 -8.43817,-5.62537 -12.11043,-10.52012 -18.61275,-17.57211 -6.50253,-7.05188 -13.8483,-15.26033 -20.76729,-22.9889 -3.51968,-3.93257 -6.02139,-6.57915 -9.16715,-9.96601 z" /></g></svg>
