<?xml version="1.0" encoding="UTF-8" standalone="no"?>
<svg
   id="Outline"
   viewBox="0 0 24 24"
   width="512"
   height="512"
   version="1.1"
   sodipodi:docname="settings-sliders.svg"
   inkscape:version="1.3 (0e150ed6c4, 2023-07-21)"
   xmlns:inkscape="http://www.inkscape.org/namespaces/inkscape"
   xmlns:sodipodi="http://sodipodi.sourceforge.net/DTD/sodipodi-0.dtd"
   xmlns="http://www.w3.org/2000/svg"
   xmlns:svg="http://www.w3.org/2000/svg">
  <defs
     id="defs3" />
  <sodipodi:namedview
     id="namedview3"
     pagecolor="#ffffff"
     bordercolor="#000000"
     borderopacity="0.25"
     inkscape:showpageshadow="2"
     inkscape:pageopacity="0.0"
     inkscape:pagecheckerboard="0"
     inkscape:deskcolor="#d1d1d1"
     inkscape:zoom="0.78417969"
     inkscape:cx="523.47696"
     inkscape:cy="287.56164"
     inkscape:window-width="1920"
     inkscape:window-height="1007"
     inkscape:window-x="0"
     inkscape:window-y="0"
     inkscape:window-maximized="1"
     inkscape:current-layer="Outline" />
  <path
     d="m 1,8.6952055 h 2.736 a 3.728,3.728 0 0 0 7.195,0 H 23 a 1,1 0 0 0 0,-2 H 10.931 a 3.728,3.728 0 0 0 -7.195,0 H 1 a 1,1 0 0 0 0,2 z m 6.333,-2.75 a 1.75,1.75 0 1 1 -1.75,1.75 1.752,1.752 0 0 1 1.75,-1.75 z"
     id="path1" />
  <path
     d="m 23,14.945205 h -2.736 a 3.727,3.727 0 0 0 -7.194,0 H 1 a 1,1 0 0 0 0,2 h 12.07 a 3.727,3.727 0 0 0 7.194,0 H 23 a 1,1 0 0 0 0,-2 z m -6.333,2.75 a 1.75,1.75 0 1 1 1.75,-1.75 1.752,1.752 0 0 1 -1.75,1.75 z"
     id="path2" />
</svg>
