<?xml version="1.0" encoding="UTF-8" standalone="no"?>
<svg
   data-name="Layer 1"
   width="793"
   height="551.73152"
   viewBox="0 0 793 551.73152"
   version="1.1"
   id="svg21"
   sodipodi:docname="08.svg"
   inkscape:version="1.3 (0e150ed6c4, 2023-07-21)"
   xml:space="preserve"
   xmlns:inkscape="http://www.inkscape.org/namespaces/inkscape"
   xmlns:sodipodi="http://sodipodi.sourceforge.net/DTD/sodipodi-0.dtd"
   xmlns="http://www.w3.org/2000/svg"
   xmlns:svg="http://www.w3.org/2000/svg"><defs
     id="defs21"><inkscape:path-effect
       effect="spiro"
       id="path-effect38"
       is_visible="true"
       lpeversion="1" /><inkscape:path-effect
       effect="simplify"
       id="path-effect36"
       is_visible="true"
       lpeversion="1.3"
       threshold="67.2131"
       steps="1"
       smooth_angles="360"
       helper_size="0"
       simplify_individual_paths="false"
       simplify_just_coalesce="false" /><inkscape:path-effect
       effect="spiro"
       id="path-effect34"
       is_visible="true"
       lpeversion="1" /><inkscape:path-effect
       effect="simplify"
       id="path-effect33"
       is_visible="true"
       lpeversion="1.3"
       threshold="67.2131"
       steps="1"
       smooth_angles="360"
       helper_size="0"
       simplify_individual_paths="false"
       simplify_just_coalesce="false" /><inkscape:path-effect
       effect="spiro"
       id="path-effect32"
       is_visible="true"
       lpeversion="1" /><inkscape:path-effect
       effect="simplify"
       id="path-effect31"
       is_visible="true"
       lpeversion="1.3"
       threshold="126.667"
       steps="1"
       smooth_angles="360"
       helper_size="0"
       simplify_individual_paths="false"
       simplify_just_coalesce="false" /><inkscape:path-effect
       effect="spiro"
       id="path-effect29"
       is_visible="true"
       lpeversion="1" /><inkscape:path-effect
       effect="simplify"
       id="path-effect28"
       is_visible="true"
       lpeversion="1.3"
       threshold="168.421"
       steps="1"
       smooth_angles="360"
       helper_size="0"
       simplify_individual_paths="false"
       simplify_just_coalesce="false" /><inkscape:path-effect
       effect="spiro"
       id="path-effect27"
       is_visible="true"
       lpeversion="1" /><inkscape:path-effect
       effect="simplify"
       id="path-effect26"
       is_visible="true"
       lpeversion="1.3"
       threshold="0.0168421"
       steps="1"
       smooth_angles="360"
       helper_size="0"
       simplify_individual_paths="false"
       simplify_just_coalesce="false" /></defs><sodipodi:namedview
     id="namedview21"
     pagecolor="#ffffff"
     bordercolor="#000000"
     borderopacity="0.25"
     inkscape:showpageshadow="2"
     inkscape:pageopacity="0.0"
     inkscape:pagecheckerboard="0"
     inkscape:deskcolor="#d1d1d1"
     inkscape:zoom="0.5"
     inkscape:cx="-362"
     inkscape:cy="61"
     inkscape:window-width="1920"
     inkscape:window-height="1007"
     inkscape:window-x="0"
     inkscape:window-y="0"
     inkscape:window-maximized="1"
     inkscape:current-layer="svg21" /><ellipse
     cx="158"
     cy="539.73152"
     rx="158"
     ry="12"
     fill="#e6e6e6"
     id="ellipse1" /><path
     d="M 679.46693,123.18993 H 618.1923 c -13.21918,0 -23.97376,-10.93555 -23.97376,-24.377136 0,-13.441577 10.75458,-24.377127 23.97376,-24.377127 h 4.35922 a 29.725751,29.725751 0 0 1 10.68334,-11.959168 28.965454,28.965454 0 0 1 15.59478,-4.561882 c 15.33099,0 28.10945,12.055676 29.29871,27.535141 h 1.33858 c 10.24288,0 18.57611,8.465106 18.57611,18.870082 0,10.40498 -8.33323,18.87009 -18.57611,18.87009 z M 618.1923,75.462386 c -12.65304,0 -22.94704,10.474918 -22.94704,23.350418 0,12.875426 10.294,23.350416 22.94704,23.350416 h 61.27463 c 9.67677,0 17.54939,-8.00447 17.54939,-17.84337 0,-9.838896 -7.87262,-17.843374 -17.54939,-17.843374 h -2.30074 l -0.0294,-0.482108 C 676.21176,70.824473 663.7778,58.941335 648.82965,58.941335 c -10.76401,0 -20.7709,6.370489 -25.49375,16.229449 l -0.13966,0.291602 z"
     fill="#3f3d56"
     id="path10"
     style="stroke-width:0.171119" /><path
     d="m 205.6173,172.00148 a 7.74623,7.74623 0 0 0 -7.73753,7.73753 v 234.33641 a 7.74657,7.74657 0 0 0 7.73753,7.73752 h 412.29944 a 7.74691,7.74691 0 0 0 7.73753,-7.73752 V 179.73901 a 7.74657,7.74657 0 0 0 -7.73753,-7.73753 z"
     fill="#ffffff"
     id="path4" /><circle
     cx="424.15173"
     cy="61.108791"
     r="4.9741201"
     fill="#ffffff"
     id="circle5" /><polygon
     points="264.306,341.556 264.649,341.004 264.649,337.135 720.046,337.135 720.046,341.556 "
     fill="#2f2e41"
     id="polygon6"
     transform="translate(-73.053711,-19.568742)" /><path
     d="M 585.12972,240.2786 H 266.48984 a 5.90767,5.90767 0 0 1 -5.90073,-5.90073 v -79.04099 a 5.90767,5.90767 0 0 1 5.90073,-5.90072 h 318.63988 a 5.90767,5.90767 0 0 1 5.90073,5.90072 v 79.041 a 5.90767,5.90767 0 0 1 -5.90073,5.90072 z M 266.48984,151.7965 a 3.5443,3.5443 0 0 0 -3.54043,3.54043 v 79.04095 a 3.54431,3.54431 0 0 0 3.54043,3.54044 h 318.63988 a 3.54431,3.54431 0 0 0 3.54043,-3.54044 v -79.041 a 3.5443,3.5443 0 0 0 -3.54043,-3.54043 z"
     fill="#e6e6e6"
     id="path9" /><circle
     cx="316"
     cy="191.82458"
     r="24.036449"
     fill="#e6e6e6"
     id="circle9" /><path
     d="m 356.23483,198.72593 a 1.1057013,1.864225 0 1 0 0,3.72845 h 22.42991 a 1.1057013,1.864225 0 1 0 0,-3.72845 z"
     fill="#e6e6e6"
     id="path11"
     style="stroke-width:0.358384" /><circle
     cx="367.4498"
     cy="194.85738"
     r="3.8685546"
     fill="#e6e6e6"
     id="circle21"
     style="fill:#000000;stroke-width:0.160945" /><path
     d="m 388.23141,198.72593 a 1.1057013,1.864225 0 1 0 0,3.72845 h 22.42991 a 1.1057013,1.864225 0 1 0 0,-3.72845 z"
     fill="#e6e6e6"
     id="path21"
     style="stroke-width:0.358384" /><circle
     cx="399.44638"
     cy="194.85738"
     r="3.8685546"
     fill="#e6e6e6"
     id="circle22"
     style="fill:#000000;stroke-width:0.160945" /><path
     d="m 420.22799,198.72593 a 1.1057013,1.864225 0 1 0 0,3.72845 h 22.42991 a 1.1057013,1.864225 0 1 0 0,-3.72845 z"
     fill="#e6e6e6"
     id="path22"
     style="stroke-width:0.358384" /><circle
     cx="431.44296"
     cy="194.85738"
     r="3.8685546"
     fill="#e6e6e6"
     id="circle23"
     style="fill:#000000;stroke-width:0.160945" /><path
     d="m 452.22457,198.72593 a 1.1057013,1.864225 0 1 0 0,3.72845 h 22.42991 a 1.1057013,1.864225 0 1 0 0,-3.72845 z"
     fill="#e6e6e6"
     id="path23"
     style="stroke-width:0.358384" /><circle
     cx="463.43954"
     cy="194.85738"
     r="3.8685546"
     fill="#e6e6e6"
     id="circle24"
     style="fill:#000000;stroke-width:0.160945" /><path
     d="m 484.22115,198.72593 a 1.1057013,1.864225 0 1 0 0,3.72845 h 22.42991 a 1.1057013,1.864225 0 1 0 0,-3.72845 z"
     fill="#e6e6e6"
     id="path24"
     style="stroke-width:0.358384" /><circle
     cx="495.43613"
     cy="194.85738"
     r="3.8685546"
     fill="#e6e6e6"
     id="circle25"
     style="fill:#000000;stroke-width:0.160945" /><path
     d="m 516.21773,198.72593 a 1.1057013,1.864225 0 1 0 0,3.72845 h 22.42991 a 1.1057013,1.864225 0 1 0 0,-3.72845 z"
     fill="#e6e6e6"
     id="path25"
     style="stroke-width:0.358384" /><circle
     cx="527.43268"
     cy="194.85738"
     r="3.8685546"
     fill="#e6e6e6"
     id="circle26"
     style="fill:#000000;stroke-width:0.160945" /><ellipse
     cx="621.43951"
     cy="463.36398"
     rx="158"
     ry="12"
     fill="#e6e6e6"
     id="ellipse26" /><path
     style="fill:#e6e6e6;fill-opacity:1;stroke:none;stroke-width:0.377953"
     d="m 217.59966,110.15344 c -9.72094,-3.67968 -20.90771,-3.30058 -30.35723,1.02877 -9.44953,4.32934 -17.04183,12.55397 -20.60304,22.31893 -3.1808,8.72186 -3.14351,18.57801 0.10781,27.27383 3.25132,8.69582 9.69102,16.15982 17.81888,20.64605 8.6421,4.77006 18.72341,6.11147 28.5654,6.86944 9.842,0.75797 19.84942,1.04169 29.27205,3.98336 12.04258,3.75959 22.3035,11.5865 32.92408,18.39544 5.31029,3.40446 10.79302,6.59501 16.66253,8.90552 5.86951,2.3105 12.16028,3.72563 18.46332,3.47787 6.52679,-0.25655 12.95866,-2.31807 18.48229,-5.80438 5.52363,-3.48632 10.13432,-8.38009 13.38896,-14.04332 6.50928,-11.32647 7.33479,-25.55166 3.00219,-37.87595 -3.68998,-10.49633 -10.93722,-19.62798 -20.04555,-26.01759 -9.10833,-6.38961 -20.01332,-10.07339 -31.09911,-11.01893 -11.43182,-0.97506 -22.89955,0.88329 -34.36985,1.14664 -5.73515,0.13167 -11.50916,-0.14021 -17.11639,-1.35193 -5.60723,-1.21172 -11.05938,-3.39147 -15.65452,-6.82571 -3.92545,-2.93373 -7.17882,-6.76123 -9.44182,-11.10804 z"
     id="path32"
     inkscape:path-effect="#path-effect33;#path-effect34"
     inkscape:original-d="m 217.59966,110.15344 c -0.91993,-1.1807 -3.07209,-4.22231 -4.54839,-5.27681 -8.23225,-5.880176 -21.21168,-5.090713 -30.01187,-1.3192 -1.16224,0.4981 -2.63116,0.44713 -3.62781,1.3192 -4.58252,4.00971 -8.91133,9.41611 -11.21322,15.17083 -3.52121,8.80302 -0.0864,18.05891 -1.64901,27.04366 -0.82656,4.75275 -7.94053,23.03541 -5.93641,27.04366 1.09532,2.19064 4.4839,6.10355 6.59602,7.25562 2.55784,1.39519 18.52333,0.26711 21.76684,-0.6596 1.87221,-0.53492 3.54764,-1.73222 5.27682,-2.30861 2.18266,-0.72755 12.47874,-1.51094 14.18143,-0.6596 3.45534,1.72767 6.8426,4.2042 9.56422,6.92581 0.85546,0.85546 1.69246,4.41183 2.3086,4.61721 1.25151,0.41717 2.63841,0 3.95761,0 6.12362,0 13.08979,-1.2395 18.13904,2.96821 4.22972,3.52477 5.74732,8.09285 7.91522,12.86223 2.11537,4.65382 5.87508,10.39598 9.89402,13.52183 5.80632,4.51603 13.16528,5.39714 20.11784,6.26621 2.23707,0.27964 4.32961,1.11317 6.59602,1.31921 3.84107,0.34918 7.4644,-0.67701 11.21322,-0.98941 9.87499,-0.82291 15.15601,-2.40865 23.41585,-7.91521 1.92603,-1.28402 4.219,-2.00995 5.93642,-3.29801 4.75185,-3.56389 9.97849,-2.47755 13.19203,-8.90462 0.53299,-1.06599 0.60772,-2.48276 0.9894,-3.62781 1.13566,-3.40697 2.30272,-5.87168 2.6384,-9.56422 0.24723,-2.71951 -0.33845,-5.53741 0,-8.24502 1.11062,-8.88494 2.00965,-20.34741 -0.6596,-29.02246 -1.56344,-5.08119 -5.18879,-8.77018 -8.57482,-12.53243 -1.94378,-2.15975 -3.4909,-4.81746 -5.93641,-6.59601 -8.87053,-6.4513 -14.56498,-7.58542 -25.39465,-7.58542 -3.17106,0 -6.42993,-0.25788 -9.56423,0.3298 -3.17731,0.59575 -1.81042,0.82334 -5.27681,1.97881 -3.88615,1.29538 -8.24246,0.85697 -12.20262,1.649 -6.04605,1.20921 -13.24949,2.354 -19.45825,1.3192 -4.0353,-0.67255 -8.01983,-3.33288 -11.87282,-4.61721 -3.01791,-1.00597 -6.14259,-1.1843 -9.23442,-2.3086 -4.15104,-1.50947 -8.304,-4.5466 -11.87283,-6.92582 -2.06363,-1.37575 -3.4523,-4.18906 -4.61721,-5.93641 -0.34587,-0.5188 0.10748,-2.53093 -0.3298,-2.96821 -0.41229,-0.41229 -1.15055,-0.19501 -1.71782,-0.3298 z"
     transform="translate(-44.193297,-31.25608)" /><path
     id="bf948e58-f613-467a-9468-983dc892a127-454"
     data-name="Path 449"
     d="m 710.17976,222.46883 c -10.593,-0.44 -20.244,-4.715 -24.61,-11.338 q -0.30606,-0.465 -0.577,-0.943 c -1.594,-2.822 -2.092,-6.066 -0.349,-8.847 1.743,-2.781 6.1,-4.893 10.468,-4.454 4.368,0.439 7.785,3.926 5.976,6.686 -0.4,-5.578 -0.735,-11.439 3.762,-16.294 a 16.43578,16.43578 0 0 1 9.207,-4.758 c 9.062,-1.594 15.07794,3.53 16.283,8.7 0.889,3.819 -0.339,7.7 -1.562,11.479 3.769,-4.457 12.73206,-6.44 19.59996,-4.335 6.868,2.105 10.673,8 8.328,12.9 -2.7629,5.764 -11.974,8.743 -20.52996,10.318 -7.06704,1.30098 -17.66103,1.23201 -25.996,0.886 z"
     fill="#f2f2f2" /><path
     id="b42aec13-b3c1-4211-a06e-06d70154504c-455"
     data-name="Path 538"
     d="m 236.48777,337.94119 c 10.593,-0.44 20.244,-4.715 24.609,-11.338 q 0.30706,-0.465 0.577,-0.943 c 1.594,-2.822 2.092,-6.066 0.349,-8.847 -1.743,-2.781 -6.1,-4.893 -10.468,-4.454 -4.368,0.439 -7.786,3.926 -5.976,6.686 0.4,-5.578 0.735,-11.439 -3.762,-16.294 a 16.43611,16.43611 0 0 0 -9.20606,-4.758 c -9.062,-1.594 -15.078,3.53 -16.283,8.7 -0.889,3.819 0.339,7.7 1.562,11.479 -3.769,-4.457 -12.732,-6.44 -19.6,-4.335 -6.868,2.105 -10.674,8 -8.328,12.9 2.763,5.764 11.974,8.743 20.53,10.318 7.06711,1.30098 17.66013,1.23201 25.99606,0.886 z"
     fill="#f2f2f2" /><path
     d="m 592.16248,59.912183 a 9.7462957,9.7462957 0 1 1 9.74629,-9.746303 9.7574569,9.7574569 0 0 1 -9.74629,9.746303 z m 0,-17.868206 a 8.1219131,8.1219131 0 1 0 8.12191,8.121903 8.1310876,8.1310876 0 0 0 -8.12191,-8.121903 z"
     fill="#6c63ff"
     id="path1"
     style="stroke-width:0.251151" /><path
     d="m 591.84264,37.98302 a 0.81222145,0.81222145 0 0 1 -0.81219,-0.812191 v -9.340197 a 0.81219131,0.81219131 0 0 1 1.62438,0 v 9.340207 a 0.81222145,0.81222145 0 0 1 -0.81219,0.812181 z"
     fill="#6c63ff"
     id="path2"
     style="stroke-width:0.251151" /><path
     d="m 579.16742,50.658437 h -9.34019 a 0.8121915,0.8121915 0 0 1 0,-1.624383 h 9.3402 a 0.8121915,0.8121915 0 0 1 0,1.624383 z"
     fill="#6c63ff"
     id="path3"
     style="stroke-width:0.251151" /><path
     d="m 613.27945,50.658437 h -9.3402 a 0.8121915,0.8121915 0 0 1 0,-1.624383 h 9.3402 a 0.8121915,0.8121915 0 0 1 0,1.624383 z"
     fill="#6c63ff"
     id="path4-3"
     style="stroke-width:0.251151" /><path
     d="m 603.68267,41.777873 a 0.81219131,0.81219131 0 0 1 -0.56552,-1.39516 l 3.91144,-3.794852 a 0.81219884,0.81219884 0 1 1 1.13104,1.165937 l -3.91144,3.79485 a 0.80914485,0.80914485 0 0 1 -0.56552,0.229225 z"
     fill="#6c63ff"
     id="path5"
     style="stroke-width:0.251151" /><path
     d="m 579.8301,41.777873 a 0.80948642,0.80948642 0 0 1 -0.56552,-0.229223 l -3.91144,-3.794852 a 0.81219884,0.81219884 0 1 1 1.13104,-1.165937 l 3.91144,3.794852 a 0.81219131,0.81219131 0 0 1 -0.56552,1.39516 z"
     fill="#6c63ff"
     id="path6"
     style="stroke-width:0.251151" /><path
     d="m 576.73085,63.973142 a 0.81239474,0.81239474 0 0 1 -0.58277,-1.378109 l 3.91144,-4.02804 a 0.81233195,0.81233195 0 0 1 1.16554,1.131833 l -3.91144,4.028038 a 0.81101844,0.81101844 0 0 1 -0.58277,0.246278 z"
     fill="#6c63ff"
     id="path7"
     style="stroke-width:0.251151" /><path
     d="m 608.4063,64.785329 a 0.80814527,0.80814527 0 0 1 -0.58118,-0.245083 l -4.72364,-4.840232 a 0.81202555,0.81202555 0 1 1 1.16236,-1.134212 l 4.72365,4.840229 a 0.81198788,0.81198788 0 0 1 -0.58119,1.379298 z"
     fill="#6c63ff"
     id="path8"
     style="stroke-width:0.251151" /><path
     d="m 591.84264,72.907242 a 0.81222145,0.81222145 0 0 1 -0.81219,-0.812192 v -9.340197 a 0.81219131,0.81219131 0 1 1 1.62438,0 v 9.340197 a 0.81222145,0.81222145 0 0 1 -0.81219,0.812192 z"
     fill="#6c63ff"
     id="path9-6"
     style="stroke-width:0.251151" /></svg>
