<?xml version="1.0" encoding="UTF-8" standalone="no"?>
<svg
   id="Layer_1"
   height="512"
   viewBox="0 0 24 24"
   width="512"
   data-name="Layer 1"
   version="1.1"
   sodipodi:docname="10.svg"
   inkscape:version="1.3 (0e150ed6c4, 2023-07-21)"
   xmlns:inkscape="http://www.inkscape.org/namespaces/inkscape"
   xmlns:sodipodi="http://sodipodi.sourceforge.net/DTD/sodipodi-0.dtd"
   xmlns="http://www.w3.org/2000/svg"
   xmlns:svg="http://www.w3.org/2000/svg">
  <defs
     id="defs1" />
  <sodipodi:namedview
     id="namedview1"
     pagecolor="#ffffff"
     bordercolor="#000000"
     borderopacity="0.25"
     inkscape:showpageshadow="2"
     inkscape:pageopacity="0.0"
     inkscape:pagecheckerboard="0"
     inkscape:deskcolor="#d1d1d1"
     inkscape:zoom="1.5683594"
     inkscape:cx="256"
     inkscape:cy="256"
     inkscape:window-width="1920"
     inkscape:window-height="1007"
     inkscape:window-x="0"
     inkscape:window-y="0"
     inkscape:window-maximized="1"
     inkscape:current-layer="Layer_1" />
  <path
     d="m16 6a1 1 0 0 1 0 2h-8a1 1 0 0 1 0-2zm7.707 17.707a1 1 0 0 1 -1.414 0l-2.407-2.407a4.457 4.457 0 0 1 -2.386.7 4.5 4.5 0 1 1 4.5-4.5 4.457 4.457 0 0 1 -.7 2.386l2.407 2.407a1 1 0 0 1 0 1.414zm-6.207-3.707a2.5 2.5 0 1 0 -2.5-2.5 2.5 2.5 0 0 0 2.5 2.5zm-4.5 2h-6a3 3 0 0 1 -3-3v-14a3 3 0 0 1 3-3h12a1 1 0 0 1 1 1v8a1 1 0 0 0 2 0v-8a3 3 0 0 0 -3-3h-12a5.006 5.006 0 0 0 -5 5v14a5.006 5.006 0 0 0 5 5h6a1 1 0 0 0 0-2z"
     id="path1"
     style="fill:#f9f9f9" />
</svg>
